HIERARCHY
ROOT hip
{
  OFFSET 58.5585 80.7454 2.12661
  CHANNELS 6 Xposition Yposition Zposition Zrotation Xrotation Yrotation
  JOINT abdomen
  {
    OFFSET 0 20.6881 -0.73152
    CHANNELS 3 Zrotation Xrotation Yrotation
    JOINT chest
    {
      OFFSET 0 11.7043 -0.48768
      CHANNELS 3 Zrotation Xrotation Yrotation
      JOINT neck
      {
        OFFSET 0 22.1894 -2.19456
        CHANNELS 3 Zrotation Xrotation Yrotation
        JOINT head
        {
          OFFSET -0.24384 7.07133 1.2192
          CHANNELS 3 Zrotation Xrotation Yrotation
          JOINT leftEye
          {
            OFFSET 4.14528 8.04674 8.04672
            CHANNELS 3 Zrotation Xrotation Yrotation
            End Site
            {
              OFFSET 1 0 0
            }
          }
          JOINT rightEye
          {
            OFFSET -3.6576 8.04674 8.04672
            CHANNELS 3 Zrotation Xrotation Yrotation
            End Site
            {
              OFFSET 1 0 0
            }
          }
        }
      }
      JOINT rCollar
      {
        OFFSET -2.68224 19.2634 -4.8768
        CHANNELS 3 Zrotation Xrotation Yrotation
        JOINT rShldr
        {
          OFFSET -8.77824 -1.95073 1.46304
          CHANNELS 3 Zrotation Xrotation Yrotation
          JOINT rForeArm
          {
            OFFSET -28.1742 -1.7115 0.48768
            CHANNELS 3 Zrotation Xrotation Yrotation
            JOINT rHand
            {
              OFFSET -22.5879 0.773209 7.07136
              CHANNELS 3 Zrotation Xrotation Yrotation
              JOINT rThumb1
              {
                OFFSET -1.2192 -0.487915 3.41376
                CHANNELS 3 Zrotation Xrotation Yrotation
                JOINT rThumb2
                {
                  OFFSET -3.37035 -0.52449 3.41376
                  CHANNELS 3 Zrotation Xrotation Yrotation
                  End Site
                  {
                    OFFSET -1.78271 -1.18214 1.43049
                  }
                }
              }
              JOINT rIndex1
              {
                OFFSET -7.75947 0.938293 5.60832
                CHANNELS 3 Zrotation Xrotation Yrotation
                JOINT rIndex2
                {
                  OFFSET -2.54057 -0.884171 1.56538
                  CHANNELS 3 Zrotation Xrotation Yrotation
                  End Site
                  {
                    OFFSET -1.62519 -0.234802 1.16502
                  }
                }
              }
              JOINT rMid1
              {
                OFFSET -8.24714 1.18213 3.41376
                CHANNELS 3 Zrotation Xrotation Yrotation
                JOINT rMid2
                {
                  OFFSET -3.10165 -0.590103 1.0647
                  CHANNELS 3 Zrotation Xrotation Yrotation
                  End Site
                  {
                    OFFSET -2.48547 -0.328903 0.83742
                  }
                }
              }
              JOINT rRing1
              {
                OFFSET -8.82822 0.546677 1.51678
                CHANNELS 3 Zrotation Xrotation Yrotation
                JOINT rRing2
                {
                  OFFSET -2.60934 -0.819778 -0.0198488
                  CHANNELS 3 Zrotation Xrotation Yrotation
                  End Site
                  {
                    OFFSET -2.33842 -0.294052 0.168128
                  }
                }
              }
              JOINT rPinky1
              {
                OFFSET -8.27202 -0.0477905 -0.4584
                CHANNELS 3 Zrotation Xrotation Yrotation
                JOINT rPinky2
                {
                  OFFSET -1.82734 -0.647385 -0.700984
                  CHANNELS 3 Zrotation Xrotation Yrotation
                  End Site
                  {
                    OFFSET -1.69225 -0.51767 -0.607171
                  }
                }
              }
            }
          }
        }
      }
      JOINT lCollar
      {
        OFFSET 2.68224 19.2634 -4.8768
        CHANNELS 3 Zrotation Xrotation Yrotation
        JOINT lShldr
        {
          OFFSET 8.77824 -1.95073 1.46304
          CHANNELS 3 Zrotation Xrotation Yrotation
          JOINT lForeArm
          {
            OFFSET 28.1742 -1.7115 0.48768
            CHANNELS 3 Zrotation Xrotation Yrotation
            JOINT lHand
            {
              OFFSET 22.5879 0.773209 7.07136
              CHANNELS 3 Zrotation Xrotation Yrotation
              JOINT lThumb1
              {
                OFFSET 1.2192 -0.487915 3.41376
                CHANNELS 3 Zrotation Xrotation Yrotation
                JOINT lThumb2
                {
                  OFFSET 3.37035 -0.52449 3.41376
                  CHANNELS 3 Zrotation Xrotation Yrotation
                  End Site
                  {
                    OFFSET 1.78271 -1.18214 1.43049
                  }
                }
              }
              JOINT lIndex1
              {
                OFFSET 7.75947 0.938293 5.60832
                CHANNELS 3 Zrotation Xrotation Yrotation
                JOINT lIndex2
                {
                  OFFSET 2.54057 -0.884171 1.56538
                  CHANNELS 3 Zrotation Xrotation Yrotation
                  End Site
                  {
                    OFFSET 1.62519 -0.234802 1.16502
                  }
                }
              }
              JOINT lMid1
              {
                OFFSET 8.24714 1.18213 3.41376
                CHANNELS 3 Zrotation Xrotation Yrotation
                JOINT lMid2
                {
                  OFFSET 3.10165 -0.590103 1.0647
                  CHANNELS 3 Zrotation Xrotation Yrotation
                  End Site
                  {
                    OFFSET 2.48547 -0.328903 0.83742
                  }
                }
              }
              JOINT lRing1
              {
                OFFSET 8.82822 0.546677 1.51678
                CHANNELS 3 Zrotation Xrotation Yrotation
                JOINT lRing2
                {
                  OFFSET 2.60934 -0.819778 -0.0198488
                  CHANNELS 3 Zrotation Xrotation Yrotation
                  End Site
                  {
                    OFFSET 2.33842 -0.294052 0.168128
                  }
                }
              }
              JOINT lPinky1
              {
                OFFSET 8.27202 -0.0477905 -0.4584
                CHANNELS 3 Zrotation Xrotation Yrotation
                JOINT lPinky2
                {
                  OFFSET 1.82734 -0.647385 -0.700984
                  CHANNELS 3 Zrotation Xrotation Yrotation
                  End Site
                  {
                    OFFSET 1.69225 -0.51767 -0.607171
                  }
                }
              }
            }
          }
        }
      }
    }
  }
  JOINT rButtock
  {
    OFFSET -8.77824 4.35084 1.2192
    CHANNELS 3 Zrotation Xrotation Yrotation
    JOINT rThigh
    {
      OFFSET 0 -1.70687 -2.19456
      CHANNELS 3 Zrotation Xrotation Yrotation
      JOINT rShin
      {
        OFFSET 0 -36.8199 0.73152
        CHANNELS 3 Zrotation Xrotation Yrotation
        JOINT rFoot
        {
          OFFSET 0.73152 -45.1104 -5.12064
          CHANNELS 3 Zrotation Xrotation Yrotation
          End Site
          {
            OFFSET -1.1221 -3.69964 12.103
          }
        }
      }
    }
  }
  JOINT lButtock
  {
    OFFSET 8.77824 4.35084 1.2192
    CHANNELS 3 Zrotation Xrotation Yrotation
    JOINT lThigh
    {
      OFFSET 0 -1.70687 -2.19456
      CHANNELS 3 Zrotation Xrotation Yrotation
      JOINT lShin
      {
        OFFSET 0 -36.8199 0.73152
        CHANNELS 3 Zrotation Xrotation Yrotation
        JOINT lFoot
        {
          OFFSET -0.73152 -45.1104 -5.12064
          CHANNELS 3 Zrotation Xrotation Yrotation
          End Site
          {
            OFFSET 1.1221 -3.69964 12.103
          }
        }
      }
    }
  }
}
MOTION
Frames:	6
Frame Time:	0.00833333
58.5475 80.7482 2.12724 9.58225 -0.289924 -86.3206 -1.95077 -1.38313 -0.558479 3.12604 -2.71874 -0.0260557 -3.5182 8.98067 -4.58884 -4.29579 -13.6228 -9.36665 -0 0 0 -0 0 0 8.08912e-014 1.39729e-012 4.42358e-014 40.4164 11.7714 35.6205 -28.2836 -38.4985 81.272 -0.559163 20.7538 3.05284 -1.35831e-010 3.58786e-010 1.02067e-009 -2.2811e-010 6.10582e-010 1.77082e-009 -1.3583e-010 3.58788e-010 1.02066e-009 7.73091 5.47488 0.417314 -1.35833e-010 3.58789e-010 1.02067e-009 2.90554 0.965183 0.102902 -1.35826e-010 3.58789e-010 1.02067e-009 10.2786 0.731801 0.0259123 -1.35837e-010 3.58791e-010 1.02067e-009 2.22167 -0.733487 -0.20892 8.09249e-014 1.39729e-012 4.3919e-014 -37.2326 18.7561 -51.7101 28.3544 -33.5449 -72.9598 1.1971 29.454 -4.55208 4.26468e-010 3.59296e-010 -1.57648e-009 7.0694e-010 5.89916e-010 -2.73115e-009 4.26466e-010 3.59297e-010 -1.57646e-009 -7.73091 5.47488 -0.417314 4.26467e-010 3.59294e-010 -1.57648e-009 -2.90554 0.965183 -0.102902 4.26464e-010 3.59295e-010 -1.57648e-009 -10.2786 0.731801 -0.0259123 4.26475e-010 3.59299e-010 -1.57649e-009 -2.22167 -0.733487 0.20892 -2.03217e-016 0 -3.88251e-019 -14.105 -33.0258 3.82172 -0.346496 44.0282 0.987842 -4.30828 -18.5975 -8.62367 2.03217e-016 0 3.88251e-019 10.9708 -34.6774 -7.47127 0.364268 39.3464 -0.548226 5.00479 -8.46634 13.1013 
58.5429 80.7491 2.13008 9.59456 -0.305386 -86.3066 -1.98158 -1.38891 -0.538514 3.09885 -2.71774 -0.0212388 -3.50062 9.05586 -4.54655 -4.14731 -13.8132 -9.27242 -0 0 0 -0 0 0 1.32775e-013 1.3069e-012 1.30586e-013 40.4747 11.7742 35.5464 -28.2809 -38.5224 81.3137 -0.559433 20.7586 3.05361 3.39079e-011 7.40355e-010 1.57984e-009 6.55913e-011 1.26394e-009 2.73925e-009 3.39108e-011 7.40356e-010 1.57983e-009 7.73091 5.47488 0.417314 3.39073e-011 7.40356e-010 1.57985e-009 2.90554 0.965183 0.102902 3.39131e-011 7.40358e-010 1.57984e-009 10.2786 0.731801 0.0259123 3.39044e-011 7.40361e-010 1.57985e-009 2.22167 -0.733487 -0.20892 1.32773e-013 1.3069e-012 1.30369e-013 -37.2285 18.7696 -51.7742 28.3532 -33.5262 -72.9285 1.19721 29.4552 -4.5523 9.97944e-010 8.56393e-010 -2.9246e-009 1.66807e-009 1.42334e-009 -5.07219e-009 9.97942e-010 8.56393e-010 -2.92459e-009 -7.73091 5.47488 -0.417314 9.97943e-010 8.56389e-010 -2.9246e-009 -2.90554 0.965183 -0.102902 9.9794e-010 8.56389e-010 -2.9246e-009 -10.2786 0.731801 -0.0259123 9.97952e-010 8.56394e-010 -2.9246e-009 -2.22167 -0.733487 0.20892 -2.03217e-016 0 -3.88251e-019 -14.1313 -33.033 3.79629 -0.346732 44.0414 0.98944 -4.31715 -18.609 -8.64277 2.03217e-016 0 3.88251e-019 10.9468 -34.6975 -7.48396 0.364732 39.3352 -0.542824 4.98967 -8.42957 13.0796 
58.5387 80.7498 2.13051 9.61097 -0.319937 -86.3025 -2.00752 -1.39998 -0.519914 3.08757 -2.713 -0.0164402 -3.50781 9.09346 -4.50726 -4.00268 -13.943 -9.17839 -0 0 0 -0 0 0 1.61832e-013 1.33752e-012 1.7339e-013 40.4984 11.7701 35.4915 -28.2797 -38.5355 81.3353 -0.558782 20.7472 3.05178 1.70051e-010 9.4348e-010 1.87018e-009 3.00984e-010 1.6116e-009 3.24133e-009 1.70054e-010 9.43481e-010 1.87016e-009 7.73091 5.47488 0.417314 1.7005e-010 9.43481e-010 1.87018e-009 2.90554 0.965183 0.102902 1.70056e-010 9.43483e-010 1.87018e-009 10.2786 0.731801 0.0259123 1.70048e-010 9.43487e-010 1.87018e-009 2.22167 -0.733487 -0.20892 1.618e-013 1.33752e-012 1.73241e-013 -37.2362 18.7778 -51.8217 28.3527 -33.5193 -72.9168 1.19613 29.4435 -4.55012 1.2604e-009 1.10276e-009 -3.64857e-009 2.10738e-009 1.83507e-009 -6.32829e-009 1.2604e-009 1.10276e-009 -3.64856e-009 -7.73091 5.47488 -0.417314 1.2604e-009 1.10276e-009 -3.64857e-009 -2.90554 0.965183 -0.102902 1.26039e-009 1.10276e-009 -3.64857e-009 -10.2786 0.731801 -0.0259123 1.26041e-009 1.10276e-009 -3.64857e-009 -2.22167 -0.733487 0.20892 -2.03217e-016 0 -3.88251e-019 -14.1535 -33.0505 3.7808 -0.346971 44.0514 0.990553 -4.32132 -18.611 -8.65108 2.03217e-016 0 3.88251e-019 10.9291 -34.7137 -7.48549 0.365169 39.3309 -0.540494 4.98596 -8.40907 13.0828 
58.5454 80.749 2.13595 9.63584 -0.335498 -86.315 -2.02947 -1.42293 -0.502203 3.10119 -2.69708 -0.0114294 -3.55691 9.08247 -4.47169 -3.85864 -14.0002 -9.0825 -0 0 0 -0 0 0 1.5893e-013 1.64666e-012 1.48504e-013 40.47 11.7537 35.4631 -28.2807 -38.5321 81.3255 -0.556615 20.7093 3.04567 2.89451e-010 8.73867e-010 1.75369e-009 5.071e-010 1.4918e-009 3.03712e-009 2.89453e-010 8.73867e-010 1.75367e-009 7.73091 5.47488 0.417314 2.8945e-010 8.73867e-010 1.75369e-009 2.90554 0.965183 0.102902 2.89455e-010 8.73869e-010 1.75369e-009 10.2786 0.731801 0.0259123 2.89447e-010 8.73873e-010 1.75369e-009 2.22167 -0.733487 -0.20892 1.58872e-013 1.64666e-012 1.48377e-013 -37.2687 18.7826 -51.8336 28.3536 -33.5325 -72.9391 1.19267 29.4056 -4.54309 1.01136e-009 9.48095e-010 -3.43895e-009 1.68101e-009 1.57081e-009 -5.96037e-009 1.01136e-009 9.48095e-010 -3.43894e-009 -7.73091 5.47488 -0.417314 1.01136e-009 9.48091e-010 -3.43895e-009 -2.90554 0.965183 -0.102902 1.01135e-009 9.4809e-010 -3.43895e-009 -10.2786 0.731801 -0.0259123 1.01137e-009 9.48094e-010 -3.43895e-009 -2.22167 -0.733487 0.20892 -2.03217e-016 0 -3.88251e-019 -14.1725 -33.0873 3.78004 -0.347245 44.057 0.990857 -4.31795 -18.5962 -8.64198 2.03217e-016 0 3.88251e-019 10.9187 -34.7235 -7.46739 0.365601 39.337 -0.542919 5.00071 -8.41339 13.1277 
58.5528 80.748 2.14042 9.66682 -0.352834 -86.3383 -2.05142 -1.45504 -0.486142 3.13241 -2.67212 -0.0065963 -3.63264 9.04857 -4.43846 -3.71489 -14.0226 -8.98615 -0 0 0 -0 0 0 1.36178e-013 2.15625e-012 8.02469e-014 40.4073 11.7284 35.4525 -28.2832 -38.5174 81.2939 -0.553557 20.6555 3.03703 3.97586e-010 6.27406e-010 1.38045e-009 6.93624e-010 1.06881e-009 2.38714e-009 3.97587e-010 6.27406e-010 1.38044e-009 7.73091 5.47488 0.417314 3.97586e-010 6.27407e-010 1.38045e-009 2.90554 0.965183 0.102902 3.97589e-010 6.27408e-010 1.38045e-009 10.2786 0.731801 0.0259123 3.9758e-010 6.27411e-010 1.38045e-009 2.22167 -0.733487 -0.20892 1.36091e-013 2.15626e-012 8.01195e-014 -37.319 18.7835 -51.8242 28.3553 -33.5585 -72.9828 1.18753 29.3491 -4.5326 4.35253e-010 5.33111e-010 -2.62286e-009 7.0126e-010 8.67871e-010 -4.53755e-009 4.35252e-010 5.33112e-010 -2.62284e-009 -7.73091 5.47488 -0.417314 4.35253e-010 5.33109e-010 -2.62286e-009 -2.90554 0.965183 -0.102902 4.35247e-010 5.33108e-010 -2.62285e-009 -10.2786 0.731801 -0.0259123 4.35259e-010 5.33111e-010 -2.62285e-009 -2.22167 -0.733487 0.20892 -2.03217e-016 0 -3.88251e-019 -14.1915 -33.1374 3.78798 -0.347549 44.06 0.990681 -4.30949 -18.5698 -8.62142 2.03217e-016 0 3.88251e-019 10.9115 -34.7302 -7.43613 0.366105 39.3502 -0.548354 5.02731 -8.43125 13.2007 
58.5591 80.7466 2.13543 9.69584 -0.366603 -86.362 -2.06837 -1.48349 -0.472227 3.16649 -2.65323 -0.0021673 -3.7076 8.99724 -4.40704 -3.58005 -14.0089 -8.89301 -0 0 0 -0 0 0 1.05044e-013 2.5705e-012 4.70327e-015 40.336 11.7039 35.4496 -28.286 -38.5001 81.2586 -0.550501 20.6015 3.02834 4.52427e-010 3.44342e-010 9.48364e-010 7.87975e-010 5.83365e-010 1.63586e-009 4.52426e-010 3.44341e-010 9.48348e-010 7.73091 5.47488 0.417314 4.52427e-010 3.44343e-010 9.48359e-010 2.90554 0.965183 0.102902 4.5243e-010 3.44343e-010 9.4836e-010 10.2786 0.731801 0.0259123 4.52419e-010 3.44345e-010 9.48365e-010 2.22167 -0.733487 -0.20892 1.04932e-013 2.5705e-012 4.56467e-015 -37.3629 18.7768 -51.8255 28.3568 -33.5836 -73.0252 1.1829 29.2982 -4.52316 -1.50672e-010 9.04528e-011 -1.65118e-009 -2.92398e-010 1.20425e-010 -2.84594e-009 -1.50673e-010 9.04547e-011 -1.65116e-009 -7.73091 5.47488 -0.417314 -1.50671e-010 9.04531e-011 -1.65118e-009 -2.90554 0.965183 -0.102902 -1.5068e-010 9.04521e-011 -1.65117e-009 -10.2786 0.731801 -0.0259123 -1.50668e-010 9.04539e-011 -1.65118e-009 -2.22167 -0.733487 0.20892 -2.03217e-016 0 -3.88251e-019 -14.2056 -33.1853 3.79841 -0.347813 44.0618 0.990505 -4.30048 -18.5443 -8.59982 2.03217e-016 0 3.88251e-019 10.9081 -34.7369 -7.40589 0.366575 39.3645 -0.554319 5.05485 -8.45186 13.2745 
